<?xml version="1.0" standalone="no"?>
<svg width="567" height="736" viewBox="0 0 567 736" xmlns="http://www.w3.org/2000/svg">
<title>
tmp.svg
</title>
<desc>
Creator: ROOT Version 5.34/00
CreationDate: Thu May 30 10:00:55 2013</desc>
<defs>
</defs>
<rect x="0" y="0" width="567" height="736" fill="white"/>
<rect x="57" y="73" width="453" height="589" fill="white"/>
<rect x="57" y="73" width="453" height="589" fill="none" stroke="black"/>
<rect x="57" y="73" width="453" height="589" fill="white"/>
<rect x="57" y="73" width="453" height="589" fill="none" stroke="black"/>
<path d="M57,662h 453" fill="none" stroke="black"/>
<text x="504" y="709" fill="black" font-size="18" font-family="Helvetica">
t
</text>
<path d="M57,645v 17" fill="none" stroke="black"/>
<path d="M73,654v 8" fill="none" stroke="black"/>
<path d="M90,654v 8" fill="none" stroke="black"/>
<path d="M107,654v 8" fill="none" stroke="black"/>
<path d="M124,654v 8" fill="none" stroke="black"/>
<path d="M141,645v 17" fill="none" stroke="black"/>
<path d="M157,654v 8" fill="none" stroke="black"/>
<path d="M174,654v 8" fill="none" stroke="black"/>
<path d="M191,654v 8" fill="none" stroke="black"/>
<path d="M208,654v 8" fill="none" stroke="black"/>
<path d="M225,645v 17" fill="none" stroke="black"/>
<path d="M241,654v 8" fill="none" stroke="black"/>
<path d="M258,654v 8" fill="none" stroke="black"/>
<path d="M275,654v 8" fill="none" stroke="black"/>
<path d="M292,654v 8" fill="none" stroke="black"/>
<path d="M309,645v 17" fill="none" stroke="black"/>
<path d="M325,654v 8" fill="none" stroke="black"/>
<path d="M342,654v 8" fill="none" stroke="black"/>
<path d="M359,654v 8" fill="none" stroke="black"/>
<path d="M376,654v 8" fill="none" stroke="black"/>
<path d="M393,645v 17" fill="none" stroke="black"/>
<path d="M409,654v 8" fill="none" stroke="black"/>
<path d="M426,654v 8" fill="none" stroke="black"/>
<path d="M443,654v 8" fill="none" stroke="black"/>
<path d="M460,654v 8" fill="none" stroke="black"/>
<path d="M477,645v 17" fill="none" stroke="black"/>
<path d="M477,645v 17" fill="none" stroke="black"/>
<path d="M493,654v 8" fill="none" stroke="black"/>
<path d="M510,654v 8" fill="none" stroke="black"/>
<text x="51" y="687" fill="black" font-size="18" font-family="Helvetica">
0
</text>
<text x="136" y="687" fill="black" font-size="18" font-family="Helvetica">
1
</text>
<text x="220" y="687" fill="black" font-size="18" font-family="Helvetica">
2
</text>
<text x="303" y="687" fill="black" font-size="18" font-family="Helvetica">
3
</text>
<text x="387" y="687" fill="black" font-size="18" font-family="Helvetica">
4
</text>
<text x="472" y="687" fill="black" font-size="18" font-family="Helvetica">
5
</text>
<path d="M57,662v -589" fill="none" stroke="black"/>
<g transform="rotate(-90,32,85)">
<text x="32" y="85" fill="black" font-size="18" font-family="Helvetica">
X
</text>
</g>
<path d="M70,578h -13" fill="none" stroke="black"/>
<path d="M63,557h -6" fill="none" stroke="black"/>
<path d="M63,536h -6" fill="none" stroke="black"/>
<path d="M63,515h -6" fill="none" stroke="black"/>
<path d="M63,494h -6" fill="none" stroke="black"/>
<path d="M70,473h -13" fill="none" stroke="black"/>
<path d="M63,452h -6" fill="none" stroke="black"/>
<path d="M63,431h -6" fill="none" stroke="black"/>
<path d="M63,410h -6" fill="none" stroke="black"/>
<path d="M63,389h -6" fill="none" stroke="black"/>
<path d="M70,368h -13" fill="none" stroke="black"/>
<path d="M63,347h -6" fill="none" stroke="black"/>
<path d="M63,326h -6" fill="none" stroke="black"/>
<path d="M63,305h -6" fill="none" stroke="black"/>
<path d="M63,284h -6" fill="none" stroke="black"/>
<path d="M70,263h -13" fill="none" stroke="black"/>
<path d="M63,242h -6" fill="none" stroke="black"/>
<path d="M63,221h -6" fill="none" stroke="black"/>
<path d="M63,200h -6" fill="none" stroke="black"/>
<path d="M63,179h -6" fill="none" stroke="black"/>
<path d="M70,158h -13" fill="none" stroke="black"/>
<path d="M70,578h -13" fill="none" stroke="black"/>
<path d="M63,599h -6" fill="none" stroke="black"/>
<path d="M63,620h -6" fill="none" stroke="black"/>
<path d="M63,641h -6" fill="none" stroke="black"/>
<path d="M70,158h -13" fill="none" stroke="black"/>
<path d="M63,136h -6" fill="none" stroke="black"/>
<path d="M63,115h -6" fill="none" stroke="black"/>
<path d="M63,94h -6" fill="none" stroke="black"/>
<text x="38" y="586" fill="black" font-size="18" font-family="Helvetica">
-2
</text>
<text x="40" y="480" fill="black" font-size="18" font-family="Helvetica">
-1
</text>
<text x="44" y="375" fill="black" font-size="18" font-family="Helvetica">
0
</text>
<text x="46" y="270" fill="black" font-size="18" font-family="Helvetica">
1
</text>
<text x="44" y="164" fill="black" font-size="18" font-family="Helvetica">
2
</text>
<text x="268" y="33" fill="black" font-size="24" font-family="Helvetica">
X:t
</text>
<path d="M57,368l 3, -253l 2, 74l 3, 162l 2, 56l 1, -29l 4, -130l 2, 16l 2, 66l 3, 46l 2, -10l 2, 11l 2, 73l 3, 163l 2, -10v -40l 2, -116v -43l 2, -138v -11l 2, -31l 3, 159l 3, 134l 2, -90v -19l 3, -223l 2, -71l 1, 19l 3, 134l 1, 83l 4, 10l 2, 17l 3,
 85v 18l 4, -16l 3, -136v -4h 1l 2, 68v 52l 2, 104l 2, 75l 2, -63l 1, -147l 3, -282l 3, 6l 2, 142l 3, 134l 2, -58l 2, -91l 3, -11l 3, 92l 1, 24h 2l 1, -3l 3, 75l 4, 176l 3, -106l 2, -164l 2, -133l 2, 38l 2, 125l 1, 93l 2, 41l 1, -24l 3, -218l 2,
 -144l 2, 25l 4, 176l 2, 44l 1, -6l 3, 14l 1, 13l 3, 101l 1, 7l 2, -43l 3, -132l 2, 14l 1, 59l 1, 51l 1, 115l 1, 31l 3, -61l 3, -259l 1, -124l 3, -11l 1, 120l 2, 101l 2, 52l 4, -135v -18l 2, -19l 4, 106l 3, 26l 1, -5l 2, 27l 3, 127l 1, 70l 1, 31l 1,
 -1l 2, -79l 2, -204l 3, -111l 1, 20v 21l 3, 187l 2, 65l 2, -109l 2, -185l 4, -106l 1, 39l 3, 182l 2, 29l 3, -11l 1, 8l 3, 103l 2, 29l 1, -7l 1, -42l 2, -93l 3, -18l 3, 214l 1, 32l 2, 8l 3, -301l 3, -181l 3, 153l 1, 42l 3, 107l 2, -66l 3, -105l 1,
 -6l 3, 80l 1, 33l 1, 22l 2, 4l 3, 13l 2, 64v 34l 1, 75l 3, 51l 1, -12l 1, -99l 2, -173l 1, -74l 2, -40l 3, 176l 2, 113l 1, 19l 2, -67l 2, -230l 3, -113v 6l 1, 4v 19l 2, 99l 3, 125l 1, 5l 1, -4l 2, -4l 2, 43l 3, 92l 2, -17l 3, -121l 1, -24l 1, -5l 3,
 151v 34l 2, 97l 1, 8l 4, -261l 1, -115l 1, -106l 2, -26l 1, 40v 41l 3, 175l 1, 40l 1, 5l 2, -40l 1, -57l 3, -78l 1, 10l 3, 109l 3, 13l 1, -4l 2, 25l 3, 144v 16l 3, 72l 3, -182l 2, -174v -22l 4, 38l 1, 105l 1, 69l 1, 59l 2, -54l 2, -99l 1, -113l 3,
 -133l 1, 33l 1, 28l 3, 160l 1, 16l 1, 16v -1l 2, -8l 1, -2l 2, 44l 3, 90v 5l 2, -30l 2, -77v -14l 4, -24l 1, 58l 2, 136l 1, 61l 1, 15l 3, -151l 1, -92" fill="none" stroke="#000099"/></svg>
